<?xml version="1.0" standalone="no"?>
<!DOCTYPE svg PUBLIC "-//W3C//DTD SVG 20010904//EN"
 "http://www.w3.org/TR/2001/REC-SVG-20010904/DTD/svg10.dtd">
<svg version="1.0" xmlns="http://www.w3.org/2000/svg"
 width="400.000000pt" height="400.000000pt" viewBox="0 0 400.000000 400.000000"
 preserveAspectRatio="xMidYMid meet">
<metadata>
Created by potrace 1.11, written by Peter Selinger 2001-2013
</metadata>
<g transform="translate(0.000000,400.000000) scale(0.100000,-0.100000)"
fill="#000000" stroke="none">
<path d="M0 2000 l0 -2000 2000 0 2000 0 0 2000 0 2000 -2000 0 -2000 0 0
-2000z m1852 863 c24 -21 47 -42 53 -48 23 -22 133 -182 146 -212 8 -18 17
-33 21 -33 5 0 8 -7 8 -16 0 -26 -63 41 -125 131 -56 82 -80 112 -141 178 -25
25 -31 37 -20 37 9 0 35 -17 58 -37z m153 7 c3 -6 -1 -7 -9 -4 -18 7 -21 14
-7 14 6 0 13 -4 16 -10z m-225 -50 c0 -8 7 -28 15 -44 8 -15 15 -32 15 -37 0
-23 -158 85 -159 108 -1 7 19 13 52 15 53 3 76 -9 77 -42z m307 1 c89 -71 143
-144 158 -210 13 -61 -47 -24 -75 47 -7 17 -15 32 -19 32 -3 0 -12 14 -19 30
-8 17 -36 55 -64 85 -58 64 -50 71 19 16z m53 29 c0 -5 -2 -10 -4 -10 -3 0 -8
5 -11 10 -3 6 -1 10 4 10 6 0 11 -4 11 -10z m50 -15 c0 -2 -9 -3 -19 -2 -11 0
-18 5 -15 9 4 6 34 0 34 -7z m-549 -42 c10 -27 35 -55 54 -64 6 -2 34 -20 63
-38 37 -24 49 -37 40 -43 -10 -6 -10 -8 2 -9 8 -1 19 -1 24 0 13 3 36 -20 30
-30 -3 -5 2 -9 10 -9 9 0 16 -4 16 -10 0 -14 0 -14 -95 30 -47 22 -90 40 -96
40 -5 0 -9 3 -9 8 0 4 -17 18 -38 31 -45 28 -87 84 -78 106 3 9 18 15 36 15
24 0 33 -6 41 -27z m604 9 c78 -48 165 -164 165 -220 0 -17 -6 -22 -25 -22
-33 0 -58 26 -95 100 -17 33 -35 60 -41 60 -5 0 -7 5 -4 11 4 6 -1 17 -11 25
-17 13 -16 13 9 3 15 -7 27 -18 27 -26 0 -7 5 -13 10 -13 6 0 10 3 10 8 -1 11
-42 55 -70 75 -33 23 -13 22 25 -1z m-178 -138 c-9 -9 -28 6 -21 18 4 6 10 6
17 -1 6 -6 8 -13 4 -17z m424 -21 c13 -16 12 -17 -3 -4 -10 7 -18 15 -18 17 0
8 8 3 21 -13z m-391 -35 c7 -18 15 -36 18 -40 2 -5 -3 -8 -12 -8 -10 0 -16 9
-16 22 0 12 -7 30 -17 40 -13 15 -13 18 -2 18 8 0 21 -15 29 -32z m417 -20
c-3 -8 -6 -5 -6 6 -1 11 2 17 5 13 3 -3 4 -12 1 -19z m-515 -134 c110 -15 163
-15 418 1 73 5 89 3 116 -14 82 -51 114 -139 120 -327 l4 -130 -107 -3 c-159
-3 -226 -16 -257 -52 -25 -28 -30 -29 -109 -29 -79 0 -84 1 -95 24 -7 16 -25
29 -49 36 -62 18 -298 22 -393 8 -75 -12 -85 -16 -88 -35 -2 -13 4 -33 12 -45
10 -14 16 -45 17 -83 1 -143 24 -157 259 -159 139 -1 159 1 190 20 45 26 60
58 67 144 l6 71 81 -3 81 -3 6 -70 c7 -87 23 -121 62 -135 34 -11 205 -12 285
-1 46 7 52 5 52 -10 0 -10 -4 -20 -8 -23 -5 -3 -10 -31 -11 -63 -2 -57 -35
-153 -53 -153 -5 0 -7 -4 -3 -10 3 -5 -4 -19 -15 -30 -11 -11 -18 -26 -14 -32
4 -7 3 -8 -4 -4 -6 4 -19 -6 -29 -21 -10 -15 -23 -32 -30 -36 -8 -5 -11 -13
-7 -18 3 -5 2 -8 -3 -7 -4 2 -29 -19 -56 -45 -26 -27 -47 -46 -47 -43 0 3 -16
-10 -35 -29 -19 -19 -38 -35 -43 -35 -5 0 -15 -6 -21 -14 -20 -24 -131 -48
-202 -44 -72 5 -196 57 -255 106 -18 15 -54 45 -80 67 -26 22 -54 48 -63 57
-8 9 -18 15 -22 13 -4 -3 -10 2 -13 11 -3 8 -2 12 4 9 5 -3 7 0 4 8 -3 8 -11
14 -19 13 -13 -1 -95 99 -95 116 0 4 -8 8 -17 8 -12 0 -14 3 -6 8 8 5 9 13 3
22 -6 8 -10 11 -10 6 0 -16 -39 40 -45 67 -4 15 -11 27 -16 27 -5 0 -6 8 -3
18 5 13 4 14 -4 3 -6 -8 -8 -20 -5 -27 7 -18 -32 -27 -55 -13 -29 18 -48 56
-71 139 -28 99 -28 193 -1 220 19 19 23 19 49 5 23 -11 31 -12 34 -2 8 22 27
-43 27 -96 0 -71 9 -97 31 -97 18 0 19 9 19 128 0 102 4 141 19 185 11 32 27
96 35 144 17 97 57 185 97 216 42 30 128 56 191 57 32 0 108 -7 170 -16z m660
-541 l1 -48 4 43 c4 43 18 53 41 30 16 -16 16 -175 -1 -208 -17 -35 -101 -51
-244 -48 -142 4 -147 7 -150 116 -1 60 0 68 6 37 5 -22 9 -33 10 -24 3 33 33
80 50 77 26 -5 20 -43 -6 -43 -13 0 -23 -4 -23 -8 0 -30 2 -41 7 -29 4 10 8
10 19 1 11 -9 14 -9 14 1 0 7 7 10 15 6 18 -7 75 13 75 26 0 6 7 7 16 4 12 -5
14 -1 9 17 -9 28 -42 57 -66 57 -10 0 -19 5 -19 10 0 14 55 12 94 -4 18 -7 45
-29 59 -47 16 -20 27 -28 27 -19 0 25 -29 59 -68 80 l-37 19 83 1 82 0 2 -47z
m-888 26 c-39 -11 -94 -66 -94 -93 0 -17 4 -15 20 12 30 49 75 72 143 72 77 0
120 -21 160 -80 23 -33 22 -13 -2 26 -10 17 -38 41 -62 53 l-44 22 69 -5 c38
-3 80 -13 93 -22 24 -15 25 -19 21 -110 -4 -124 -13 -133 -136 -147 -62 -7
-121 -7 -188 0 -120 13 -130 21 -139 126 -11 129 12 157 125 156 56 -1 61 -2
34 -10z m605 -1 c-2 -2 -19 -16 -37 -33 -27 -24 -32 -26 -26 -10 8 24 33 45
53 45 8 0 12 -1 10 -2z"/>
<path d="M1794 2146 c-66 -21 -146 -68 -135 -79 7 -7 18 -5 34 6 67 43 190 58
262 31 53 -20 67 -21 72 -6 7 18 -73 50 -138 57 -32 3 -70 -1 -95 -9z"/>
<path d="M2393 2135 c-33 -15 -53 -30 -53 -41 0 -18 3 -17 80 11 53 20 96 14
159 -21 24 -13 46 -22 48 -20 11 11 -33 57 -73 75 -57 27 -97 26 -161 -4z"/>
<path d="M1340 1874 c0 -5 12 -18 27 -28 16 -12 24 -14 21 -6 -5 16 -48 46
-48 34z"/>
<path d="M2285 1541 c-16 -50 -122 -65 -167 -24 -17 15 -18 15 -18 0 0 -34
105 -58 150 -35 24 13 57 65 47 75 -3 2 -8 -5 -12 -16z"/>
<path d="M2175 1399 c-33 -4 -106 -7 -162 -8 -111 -1 -116 -4 -84 -50 25 -35
91 -51 194 -48 42 1 77 -1 77 -4 0 -8 75 8 101 21 13 8 20 6 27 -6 8 -14 12
-12 29 12 11 16 28 44 37 61 l16 33 -87 -3 c-49 -1 -115 -5 -148 -8z m90 -34
c-32 -15 -160 -20 -216 -8 l-34 7 30 6 c17 3 80 7 140 8 102 1 108 0 80 -13z"/>
<path d="M2185 1235 c-48 -10 -53 -13 -25 -13 19 0 53 5 75 13 51 16 28 17
-50 0z"/>
<path d="M2255 1200 c-27 -13 -34 -19 -20 -19 11 -1 34 8 50 19 37 25 23 25
-30 0z"/>
<path d="M1788 1905 c-31 -18 -48 -44 -48 -76 0 -17 3 -19 13 -10 10 7 16 8
24 0 14 -14 92 -19 100 -6 3 5 9 3 14 -4 5 -9 10 -5 14 14 6 22 10 25 21 16
24 -20 17 16 -9 46 -28 33 -90 42 -129 20z m32 -44 c0 -26 -17 -36 -35 -21
-18 15 -8 40 16 40 12 0 19 -7 19 -19z"/>
</g>
</svg>
